<svg xmlns="http://www.w3.org/2000/svg" viewBox="0 0 85 85">
  <title>inst</title>
  <g id="Layer_3" data-name="Layer 3">
    <g>
      <path d="M61.05,28.47A7.89,7.89,0,0,0,56.54,24a12.82,12.82,0,0,0-4.42-.82C49.61,23,48.85,23,42.5,23v0c-6.35,0-7.11,0-9.62.14a12.82,12.82,0,0,0-4.42.82A7.89,7.89,0,0,0,24,28.46a12.82,12.82,0,0,0-.82,4.42C23,35.39,23,36.15,23,42.5s0,7.11.14,9.62A12.82,12.82,0,0,0,24,56.54a7.93,7.93,0,0,0,4.46,4.52,12.82,12.82,0,0,0,4.42.82c2.51.14,3.26.14,9.62.14s7.11,0,9.62-.14a12.82,12.82,0,0,0,4.42-.82,7.89,7.89,0,0,0,4.51-4.51,12.82,12.82,0,0,0,.82-4.42c.14-2.51.14-3.27.14-9.62s0-7.11-.14-9.62A12.82,12.82,0,0,0,61.05,28.47ZM42.5,54.72A12.22,12.22,0,1,1,54.72,42.5,12.22,12.22,0,0,1,42.5,54.72ZM55.2,32.66a2.86,2.86,0,1,1,2.86-2.86A2.86,2.86,0,0,1,55.2,32.66Z" fill="#fbfc46"/>
      <path d="M42.5,0A42.5,42.5,0,1,0,85,42.5,42.5,42.5,0,0,0,42.5,0ZM66.29,52.31a17.54,17.54,0,0,1-1.11,5.78,12.14,12.14,0,0,1-7,7A17.54,17.54,0,0,1,52.4,66.2c-2.54.14-3.35.14-9.81.14s-7.27,0-9.81-.14A17.54,17.54,0,0,1,27,65.09a12.14,12.14,0,0,1-7-7,17.64,17.64,0,0,1-1.2-5.69c-.14-2.54-.14-3.35-.14-9.81s0-7.27.14-9.81A17.54,17.54,0,0,1,19.91,27a12.14,12.14,0,0,1,7-7,17.54,17.54,0,0,1,5.78-1.11c2.54-.14,3.35-.14,9.81-.14l.09-.09c6.46,0,7.27,0,9.81.14a17.54,17.54,0,0,1,5.78,1.11,12.14,12.14,0,0,1,7,7,17.54,17.54,0,0,1,1.11,5.78c.14,2.54.14,3.35.14,9.81S66.4,49.77,66.29,52.31Z" fill="#fbfc46"/>
      <path d="M42.5,34.57a7.93,7.93,0,0,0,0,15.86h0a7.93,7.93,0,0,0,0-15.86Z" fill="#fbfc46"/>
    </g>
  </g>
</svg>
