<svg xmlns="http://www.w3.org/2000/svg" viewBox="0 0 225.5 59">
  <title>logo</title>
  <g id="mid">
    <path d="M113.5,0c-28.72,0-52,13.21-52,29.5S84.78,59,113.5,59s52-13.21,52-29.5S142.22,0,113.5,0Zm0,52c-5,0-9-10.07-9-22.5s4-22.5,9-22.5,9,10.07,9,22.5S118.47,52,113.5,52Z" fill="#fbfc46"/>
  </g>
  <g id="r1">
    <path d="M205.5,29.5c0-16.29-10.75-29.5-24-29.5V59C194.75,59,205.5,45.79,205.5,29.5Z" fill="#fbfc46"/>
  </g>
  <g id="r2">
    <path d="M225.5,29.5C225.5,13.21,221,0,215.5,0V59C221,59,225.5,45.79,225.5,29.5Z" fill="#fbfc46"/>
  </g>
  <g id="l1">
    <path d="M21,29.5C21,45.79,31.75,59,45,59V0C31.75,0,21,13.21,21,29.5Z" fill="#fbfc46"/>
  </g>
  <g id="l2">
    <path d="M0,29.5C0,45.79,4.48,59,10,59V0C4.48,0,0,13.21,0,29.5Z" fill="#fbfc46"/>
  </g>
</svg>
