<?xml version="1.0" encoding="utf-8"?>
<!-- Generator: Adobe Illustrator 24.0.3, SVG Export Plug-In . SVG Version: 6.00 Build 0)  -->
<svg version="1.1" id="Layer_1" xmlns="http://www.w3.org/2000/svg" xmlns:xlink="http://www.w3.org/1999/xlink" x="0px" y="0px"
	 viewBox="0 0 303.5 303.5" style="enable-background:new 0 0 303.5 303.5;" xml:space="preserve">
<style type="text/css">
	.st0{fill:#FBFC46;}
	.st1{opacity:0.9;enable-background:new    ;}
	.st2{opacity:0.9;}
</style>
<title>smiley</title>
<g>
	<g id="Layer_1_1_">
		<g>
			<circle class="st0" cx="151.8" cy="151.8" r="151.8"/>
			<g>
				<ellipse class="st1" cx="213.5" cy="103.3" rx="31.3" ry="48.6"/>
			</g>
			<g>
				<ellipse class="st1" cx="90.1" cy="101" rx="31.3" ry="48.6"/>
			</g>
			<g>
				<g class="st2">
					<path d="M255.1,176.6c-28.6-4.7-5.9,14.7-8.1,19.3c-12.5,27.4-41.5,60.1-95.3,60.1s-82.8-32.7-95.3-60.1
						c-2.1-4.6,20.5-24-8.1-19.3c-22.5,3.7,1.3,15.6,2.9,21.2c7.7,27.6,47.2,73,99.6,74h1.9c52.4-1.1,91.9-46.5,99.6-74
						C253.8,192.3,277.6,180.3,255.1,176.6z"/>
				</g>
			</g>
		</g>
	</g>
</g>
</svg>
