<svg xmlns="http://www.w3.org/2000/svg" viewBox="0 0 303.54 303.54">
  <title>smiley</title>
  <g style="isolation: isolate">
    <g id="Layer_1" data-name="Layer 1">
      <g>
        <circle cx="151.77" cy="151.77" r="151.77" fill="#fbfc46"/>
        <g>
          <ellipse cx="218.53" cy="103.27" rx="31.31" ry="48.56" fill="#e9007b" opacity="0.9" style="mix-blend-mode: multiply"/>
          <ellipse cx="213.48" cy="103.27" rx="31.31" ry="48.56" fill="#ffec23" opacity="0.9" style="mix-blend-mode: multiply"/>
          <ellipse cx="208.43" cy="103.27" rx="31.31" ry="48.56" fill="#00a1e0" opacity="0.9" style="mix-blend-mode: multiply"/>
        </g>
        <g>
          <ellipse cx="95.11" cy="100.97" rx="31.31" ry="48.56" fill="#e9007b" opacity="0.9" style="mix-blend-mode: multiply"/>
          <ellipse cx="90.06" cy="100.97" rx="31.31" ry="48.56" fill="#ffec23" opacity="0.9" style="mix-blend-mode: multiply"/>
          <ellipse cx="85.01" cy="100.97" rx="31.31" ry="48.56" fill="#00a1e0" opacity="0.9" style="mix-blend-mode: multiply"/>
        </g>
        <g>
          <g opacity="0.9" style="mix-blend-mode: multiply">
            <path d="M255.13,176.63c-28.58-4.66-5.95,14.67-8.06,19.3C234.6,223.36,205.54,256,151.74,256s-82.85-32.67-95.33-60.1c-2.1-4.63,20.52-24-8.06-19.3-22.48,3.66,1.3,15.64,2.86,21.22,7.7,27.58,47.19,73,99.59,74h1.89c52.4-1.06,91.88-46.45,99.59-74C253.84,192.27,277.61,180.29,255.13,176.63Z" fill="#ffec23"/>
          </g>
          <g opacity="0.9" style="mix-blend-mode: multiply">
            <path d="M258,176.63c-28.58-4.66-6,14.67-8.06,19.3C237.5,223.36,208.44,256,154.65,256s-82.86-32.67-95.33-60.1c-2.11-4.63,20.52-24-8.07-19.3-22.47,3.66,1.3,15.64,2.86,21.22,7.7,27.58,47.19,73,99.59,74h1.89c52.4-1.06,91.89-46.45,99.59-74C256.74,192.27,280.51,180.29,258,176.63Z" fill="#e9007b"/>
          </g>
          <g opacity="0.9" style="mix-blend-mode: multiply">
            <path d="M252.87,176.63c-28.58-4.66-6,14.67-8.06,19.3C232.33,223.36,203.27,256,149.48,256s-82.86-32.67-95.33-60.1c-2.11-4.63,20.51-24-8.07-19.3-22.47,3.66,1.3,15.64,2.86,21.22,7.7,27.58,47.19,73,99.59,74h1.89c52.4-1.06,91.89-46.45,99.59-74C251.57,192.27,275.34,180.29,252.87,176.63Z" fill="#00a1e0"/>
          </g>
        </g>
      </g>
    </g>
  </g>
</svg>
